<?xml version="1.0" encoding="UTF-8" standalone="no"?>
<!DOCTYPE svg PUBLIC "-//W3C//DTD SVG 1.1//EN" "http://www.w3.org/Graphics/SVG/1.1/DTD/svg11.dtd">
<svg width="100%" height="100%" viewBox="0 0 150 150" version="1.1" xmlns="http://www.w3.org/2000/svg" xmlns:xlink="http://www.w3.org/1999/xlink" xml:space="preserve" xmlns:serif="http://www.serif.com/" style="fill-rule:evenodd;clip-rule:evenodd;stroke-linejoin:round;stroke-miterlimit:2;">
    <rect id="Artboard1" x="0" y="0" width="150" height="150" style="fill:none;"/>
    <clipPath id="_clip1">
        <rect id="Artboard11" serif:id="Artboard1" x="0" y="0" width="150" height="150"/>
    </clipPath>
    <g clip-path="url(#_clip1)">
        <g transform="matrix(0.669443,0,0,1.0025,24.7918,-0.375175)">
            <path d="M50.869,79.987L50.869,90.295C50.869,92.225 48.525,93.791 45.634,93.791L24.745,93.791C21.854,93.791 19.51,92.225 19.51,90.295L19.51,79.988C19.51,78.057 21.854,76.492 24.745,76.492L45.634,76.492C48.525,76.492 50.869,78.057 50.869,79.987ZM90.68,79.987L90.68,90.295C90.68,92.225 88.336,93.791 85.445,93.791L64.555,93.791C61.664,93.791 59.32,92.225 59.32,90.295L59.32,79.988C59.32,78.057 61.664,76.492 64.555,76.492L85.445,76.492C88.336,76.492 90.68,78.057 90.68,79.987ZM50.869,126.633L50.869,136.94C50.869,138.871 48.525,140.436 45.634,140.436L24.745,140.436C21.854,140.436 19.51,138.871 19.51,136.94L19.51,126.633C19.51,124.702 21.854,123.137 24.745,123.137L45.634,123.137C48.525,123.137 50.869,124.702 50.869,126.633ZM50.869,103.31L50.869,113.617C50.869,115.548 48.525,117.113 45.634,117.113L24.745,117.113C21.854,117.113 19.51,115.548 19.51,113.617L19.51,103.31C19.51,101.379 21.854,99.814 24.745,99.814L45.634,99.814C48.525,99.814 50.869,101.379 50.869,103.31ZM130.49,126.633L130.49,136.94C130.49,138.871 128.146,140.436 125.255,140.436L104.366,140.436C101.475,140.436 99.131,138.871 99.131,136.94L99.131,126.633C99.131,124.702 101.475,123.137 104.366,123.137L125.255,123.137C128.146,123.137 130.49,124.702 130.49,126.633ZM90.68,103.31L90.68,113.617C90.68,115.548 88.336,117.113 85.445,117.113L64.555,117.113C61.664,117.113 59.32,115.548 59.32,113.617L59.32,103.31C59.32,101.379 61.664,99.814 64.555,99.814L85.445,99.814C88.336,99.814 90.68,101.379 90.68,103.31ZM130.49,103.31L130.49,113.617C130.49,115.548 128.146,117.113 125.255,117.113L104.366,117.113C101.475,117.113 99.131,115.548 99.131,113.617L99.131,103.31C99.131,101.379 101.475,99.814 104.366,99.814L125.255,99.814C128.146,99.814 130.49,101.379 130.49,103.31ZM90.68,126.633L90.68,136.94C90.68,138.871 88.336,140.436 85.445,140.436L64.555,140.436C61.664,140.436 59.32,138.871 59.32,136.94L59.32,126.633C59.32,124.702 61.664,123.137 64.555,123.137L85.445,123.137C88.336,123.137 90.68,124.702 90.68,126.633ZM130.49,79.987L130.49,90.295C130.49,92.225 128.146,93.791 125.255,93.791L104.366,93.791C101.475,93.791 99.131,92.225 99.131,90.295L99.131,79.988C99.131,78.057 101.475,76.492 104.366,76.492L125.255,76.492C128.146,76.492 130.49,78.057 130.49,79.987Z" style="fill:rgb(220,212,202);"/>
        </g>
        <g transform="matrix(0.159895,0,0,0.135554,36.357,74.8124)">
            <path d="M150,36.886C150,16.514 136,0 118.729,-0C93.074,0 56.926,0 31.271,0C14,0 0,16.514 0,36.886C0,60.086 0,89.914 0,113.114C0,133.486 14,150 31.271,150C56.926,150 93.074,150 118.729,150C136,150 150,133.486 150,113.114C150,89.914 150,60.086 150,36.886Z" style="fill:rgb(96,83,76);"/>
        </g>
        <g transform="matrix(0.159895,0,0,0.135554,36.357,98.1933)">
            <path d="M150,36.886C150,16.514 136,0 118.729,-0C93.074,-0 56.926,-0 31.271,-0C14,0 0,16.514 0,36.886C0,60.086 0,89.914 0,113.114C0,133.486 14,150 31.271,150C56.926,150 93.074,150 118.729,150C136,150 150,133.486 150,113.114C150,89.914 150,60.086 150,36.886Z" style="fill:rgb(96,83,76);"/>
        </g>
        <g transform="matrix(0.159895,0,0,0.135554,36.357,121.574)">
            <path d="M150,36.886C150,16.514 136,0 118.729,-0C93.074,0 56.926,0 31.271,0C14,0 0,16.514 0,36.886C0,60.086 0,89.914 0,113.114C0,133.486 14,150 31.271,150C56.926,150 93.074,150 118.729,150C136,150 150,133.486 150,113.114C150,89.914 150,60.086 150,36.886Z" style="fill:rgb(96,83,76);"/>
        </g>
        <g transform="matrix(0.159895,0,0,0.135554,63.0079,74.8124)">
            <path d="M150,36.886C150,16.514 136,0 118.729,-0C93.074,0 56.926,0 31.271,0C14,0 0,16.514 0,36.886C0,60.086 0,89.914 0,113.114C0,133.486 14,150 31.271,150C56.926,150 93.074,150 118.729,150C136,150 150,133.486 150,113.114C150,89.914 150,60.086 150,36.886Z" style="fill:rgb(96,83,76);"/>
        </g>
        <g transform="matrix(0.159895,0,0,0.135554,63.0079,98.1933)">
            <path d="M150,36.886C150,16.514 136,0 118.729,-0C93.074,-0 56.926,-0 31.271,-0C14,0 0,16.514 0,36.886C0,60.086 0,89.914 0,113.114C0,133.486 14,150 31.271,150C56.926,150 93.074,150 118.729,150C136,150 150,133.486 150,113.114C150,89.914 150,60.086 150,36.886Z" style="fill:rgb(96,83,76);"/>
        </g>
        <g transform="matrix(0.159895,0,0,0.135554,63.0079,121.574)">
            <path d="M150,36.886C150,16.514 136,0 118.729,-0C93.074,0 56.926,0 31.271,0C14,0 0,16.514 0,36.886C0,60.086 0,89.914 0,113.114C0,133.486 14,150 31.271,150C56.926,150 93.074,150 118.729,150C136,150 150,133.486 150,113.114C150,89.914 150,60.086 150,36.886Z" style="fill:rgb(96,83,76);"/>
        </g>
        <g transform="matrix(0.159895,0,0,0.135554,89.6588,74.8124)">
            <path d="M150,36.886C150,16.514 136,0 118.729,-0C93.074,0 56.926,0 31.271,0C14,0 0,16.514 0,36.886C0,60.086 0,89.914 0,113.114C0,133.486 14,150 31.271,150C56.926,150 93.074,150 118.729,150C136,150 150,133.486 150,113.114C150,89.914 150,60.086 150,36.886Z" style="fill:rgb(207,83,43);"/>
        </g>
        <g transform="matrix(0.159895,0,0,0.135554,89.6588,98.1933)">
            <path d="M150,36.886C150,16.514 136,0 118.729,-0C93.074,-0 56.926,-0 31.271,-0C14,0 0,16.514 0,36.886C0,60.086 0,89.914 0,113.114C0,133.486 14,150 31.271,150C56.926,150 93.074,150 118.729,150C136,150 150,133.486 150,113.114C150,89.914 150,60.086 150,36.886Z" style="fill:rgb(65,59,55);"/>
        </g>
        <g transform="matrix(0.159895,0,0,0.135554,89.6588,121.574)">
            <path d="M150,36.886C150,16.514 136,0 118.729,-0C93.074,0 56.926,0 31.271,0C14,0 0,16.514 0,36.886C0,60.086 0,89.914 0,113.114C0,133.486 14,150 31.271,150C56.926,150 93.074,150 118.729,150C136,150 150,133.486 150,113.114C150,89.914 150,60.086 150,36.886Z" style="fill:rgb(65,59,55);"/>
        </g>
        <path d="M125.208,4.625L125.208,145C125.208,147.76 122.968,150 120.208,150L29.792,150C27.032,150 24.792,147.76 24.792,145L24.792,4.625C24.792,1.865 27.032,-0.375 29.792,-0.375L120.208,-0.375C122.968,-0.375 125.208,1.865 125.208,4.625ZM58.846,79.812C58.846,77.877 57.277,76.308 55.341,76.308L41.357,76.308C39.421,76.308 37.852,77.877 37.852,79.812L37.852,90.146C37.852,92.081 39.421,93.65 41.357,93.65L55.341,93.65C57.277,93.65 58.846,92.081 58.846,90.145L58.846,79.812ZM85.497,79.812C85.497,77.877 83.928,76.308 81.992,76.308L68.008,76.308C66.072,76.308 64.503,77.877 64.503,79.812L64.503,90.146C64.503,92.081 66.072,93.65 68.008,93.65L81.992,93.65C83.928,93.65 85.497,92.081 85.497,90.145L85.497,79.812ZM58.846,126.574C58.846,124.639 57.277,123.07 55.341,123.07L41.357,123.07C39.421,123.07 37.852,124.639 37.852,126.574L37.852,136.907C37.852,138.843 39.421,140.412 41.357,140.412L55.341,140.412C57.277,140.412 58.846,138.843 58.846,136.907L58.846,126.574ZM58.846,103.193C58.846,101.258 57.277,99.689 55.341,99.689L41.357,99.689C39.421,99.689 37.852,101.258 37.852,103.193L37.852,113.526C37.852,115.462 39.421,117.031 41.357,117.031L55.341,117.031C57.277,117.031 58.846,115.462 58.846,113.526L58.846,103.193ZM112.148,126.574C112.148,124.639 110.579,123.07 108.643,123.07L94.659,123.07C92.723,123.07 91.154,124.639 91.154,126.574L91.154,136.907C91.154,138.843 92.723,140.412 94.659,140.412L108.643,140.412C110.579,140.412 112.148,138.843 112.148,136.907L112.148,126.574ZM85.497,103.193C85.497,101.258 83.928,99.689 81.992,99.689L68.008,99.689C66.072,99.689 64.503,101.258 64.503,103.193L64.503,113.526C64.503,115.462 66.072,117.031 68.008,117.031L81.992,117.031C83.928,117.031 85.497,115.462 85.497,113.526L85.497,103.193ZM112.148,103.193C112.148,101.258 110.579,99.689 108.643,99.689L94.659,99.689C92.723,99.689 91.154,101.258 91.154,103.193L91.154,113.526C91.154,115.462 92.723,117.031 94.659,117.031L108.643,117.031C110.579,117.031 112.148,115.462 112.148,113.526L112.148,103.193ZM85.497,126.574C85.497,124.639 83.928,123.07 81.992,123.07L68.008,123.07C66.072,123.07 64.503,124.639 64.503,126.574L64.503,136.907C64.503,138.843 66.072,140.412 68.008,140.412L81.992,140.412C83.928,140.412 85.497,138.843 85.497,136.907L85.497,126.574ZM112.148,79.812C112.148,77.877 110.579,76.308 108.643,76.308L94.659,76.308C92.723,76.308 91.154,77.877 91.154,79.812L91.154,90.146C91.154,92.081 92.723,93.65 94.659,93.65L108.643,93.65C110.579,93.65 112.148,92.081 112.148,90.145L112.148,79.812Z" style="fill:rgb(220,212,202);"/>
        <g transform="matrix(0.513769,0,0,0.379554,36.5776,10.6569)">
            <path d="M150,13.173C150,9.68 148.975,6.329 147.15,3.858C145.324,1.388 142.849,-0 140.268,0C113.136,0 36.864,0 9.732,0C7.151,-0 4.676,1.388 2.85,3.858C1.025,6.329 -0,9.68 -0,13.173C0,41.597 0,108.403 0,136.827C-0,140.32 1.025,143.671 2.85,146.142C4.676,148.612 7.151,150 9.732,150C36.864,150 113.136,150 140.268,150C142.849,150 145.324,148.612 147.15,146.142C148.975,143.671 150,140.32 150,136.827C150,108.403 150,41.597 150,13.173Z" style="fill:rgb(27,60,52);"/>
        </g>
    </g>
</svg>